<?xml version="1.0" encoding="UTF-8"?>
<svg id="Livello_1" data-name="Livello 1" xmlns="http://www.w3.org/2000/svg" viewBox="0 0 512 512">
  <polyline points="278.76 256 384 150.76 361.24 128 256 233.24 150.76 128 128 150.76 233.24 256 128 361.24 150.76 384 256 278.76"/>
  <path d="M284.36,384v-25.39l48.5-40.12c3.22-2.67,5.98-5.17,8.29-7.52,2.31-2.35,4.08-4.77,5.33-7.27,1.25-2.5,1.87-5.27,1.87-8.32,0-3.34-.71-6.2-2.13-8.57-1.42-2.37-3.38-4.2-5.87-5.49-2.5-1.29-5.38-1.94-8.63-1.94s-6.13,.66-8.6,1.97c-2.48,1.31-4.39,3.24-5.75,5.78-1.36,2.54-2.03,5.63-2.03,9.27h-33.52c0-9.14,2.05-17.01,6.16-23.62,4.1-6.6,9.9-11.68,17.39-15.24,7.49-3.55,16.27-5.33,26.35-5.33s19.44,1.66,27.08,4.98c7.64,3.32,13.54,7.99,17.71,14,4.17,6.01,6.25,13.06,6.25,21.14,0,4.99-1.04,9.96-3.11,14.89-2.07,4.93-5.8,10.38-11.17,16.35-5.38,5.97-13.01,13.08-22.92,21.33l-12.19,10.16v.76h50.79v28.19h-99.8Z"/>
</svg>