<?xml version="1.0" encoding="UTF-8"?>
<svg id="Livello_1" data-name="Livello 1" xmlns="http://www.w3.org/2000/svg" viewBox="0 0 512 512">
  <polygon points="240.24 237.23 240.24 324.23 271.77 324.23 271.77 237.28 240.24 237.23"/>
  <rect x="240.23" y="189.32" width="31.53" height="31.53"/>
  <polygon points="231.35 361 231.35 393 119 393 119 280.65 151 280.65 151 361 231.35 361"/>
  <polygon points="231.35 119 231.35 151 151 151 151 231.35 119 231.35 119 119 231.35 119"/>
  <polygon points="393 119 393 231.35 361 231.35 361 151 280.65 151 280.65 119 393 119"/>
  <polygon points="393 280.65 361 280.65 361 361 280.65 361 280.65 393 393 393 393 280.65"/>
</svg>