<?xml version="1.0" encoding="UTF-8"?>
<svg id="Livello_1" data-name="Livello 1" xmlns="http://www.w3.org/2000/svg" viewBox="0 0 512 512">
  <path d="M384,361.24l-48.59-48.59c14.64-19.32,23.33-43.38,23.33-69.43,0-63.53-51.69-115.22-115.22-115.22-23.67,0-46.42,7.13-65.79,20.62-9.42,6.56-17.71,14.38-24.7,23.23l-3.93-32.25-22.97,31.24,5.66,46.49v.06s19.29,14.13,19.29,14.13l82.32-15.57,23.14-31.47-84.45,15.97c14.84-24.94,41.59-40.44,71.43-40.44,45.89,0,83.22,37.33,83.22,83.22s-37.33,83.22-83.22,83.22c-35.07,0-66.57-22.17-78.38-55.17l-30.13,10.78c16.35,45.69,59.96,76.39,108.51,76.39,25.9,0,49.83-8.59,69.1-23.08l48.63,48.63,22.76-22.76Z"/>
</svg>