<?xml version="1.0" encoding="UTF-8"?>
<svg id="Livello_1" data-name="Livello 1" xmlns="http://www.w3.org/2000/svg" viewBox="0 0 512 512">
  <path d="M256,128c-73.12,0-130.09,48.8-200,128,60.18,67.7,110.71,128,200,128s154.82-76.4,200-126.6c-46.25-58.8-111.79-129.4-200-129.4Zm0,219.3c-49.4,0-89.6-41-89.6-91.3s40.2-91.3,89.6-91.3,89.6,41,89.6,91.3-40.2,91.3-89.6,91.3Z"/>
  <path d="M256,224c0-7.9,2.9-15.1,7.6-20.7-2.5-.4-5-.6-7.6-.6-28.8,0-52.3,23.9-52.3,53.3s23.5,53.3,52.3,53.3,52.3-23.9,52.3-53.3c0-2.3-.2-4.6-.4-6.9-5.5,4.3-12.3,6.9-19.8,6.9-17.8,0-32.1-14.3-32.1-32Z"/>
</svg>