<?xml version="1.0" encoding="UTF-8"?>
<svg id="Livello_3" data-name="Livello 3" xmlns="http://www.w3.org/2000/svg" viewBox="0 0 1050.57 354.45">
  <defs>
    <style>
      .cls-1 {
        fill: #131514;
      }
    </style>
  </defs>
  <path class="cls-1" d="M163.03,196.67h2.63c22.09,0,36.29,11.31,40.5,31.56h35.5c-1.19-16.09-7.43-30.55-18.3-41.56,29.92-1.39,49.54-19.1,55.6-44.08h-33.92c-2.37,9.47-10.78,16.57-23.14,16.57h-2.1c-13.94,0-28.66-12.36-29.71-29.98h88.88c.26-5.52,.53-9.73,.53-12.36,0-38.66-21.3-66.79-59.96-66.79s-62.59,28.93-62.59,68.37c0,13.07,2.71,24.54,7.43,34.19H68.07V49.1l60.8,65.27v-44.49L63.83,.05l-27.22-.05-.05,.05L0,38.89v44.17L32.57,48.46V184.13H106.64c-19.68,16.5-30.39,42.85-30.39,75.65,0,56.8,32.34,94.67,88.09,94.67,47.6,0,74.68-26.56,77.31-63.11h-35.5c-4.21,20.77-18.15,31.56-40.5,31.56h-2.63c-30.5,0-51.28-24.19-51.28-63.11s20.77-63.11,51.28-63.11Zm54.13-119.04h2.1c14.46,0,26.03,9.73,27.09,25.25h-56.27c1.05-15.52,12.62-25.25,27.08-25.25Z"/>
  <path class="cls-1" d="M339.05,293.44c0,18.41-12.36,33.4-27.09,33.4h-2.1c-12.62,0-19.46-9.2-19.46-26.3v-80.2h-34.19v84.15c0,30.5,14.73,49.96,44.44,49.96,16.04,0,30.24-8.42,38.39-21.83v19.2h34.19V220.33h-34.19v73.1Z"/>
  <polygon class="cls-1" points="664.09 220.33 629.64 326.57 594.93 220.33 558.64 220.33 604.13 351.82 653.83 351.82 699.33 220.33 664.09 220.33"/>
  <path class="cls-1" d="M412.8,155.2v-57.85c0-30.24-22.09-47.33-55.22-47.33s-53.91,18.41-56.54,43.39h34.19c1.05-8.15,8.68-15.78,21.3-15.78h2.1c12.62,0,21.04,8.94,21.04,21.04v3.16l-33.13,2.89c-28.14,2.37-48.12,16.83-48.12,43.39,0,23.41,19.46,38.66,43.13,38.66,16.83,0,30.77-7.1,38.92-18.67,.26,7.1,.79,12.36,1.58,16.04h32.08c-.79-6.05-1.31-15.78-1.31-28.93Zm-33.13-24.72c0,16.57-13.94,28.66-29.19,28.66h-2.1c-9.47,0-16.3-5.26-16.3-13.41,0-9.73,8.94-15.25,19.2-16.04l28.4-2.89v3.68Z"/>
  <path class="cls-1" d="M475.17,115.76c0-22.35,10.52-32.87,32.87-32.87h11.83v-31.55h-6.57c-19.2,0-32.87,9.99-38.13,27.61v-26.3h-34.18V184.13h34.18V115.76Z"/>
  <path class="cls-1" d="M574.94,111.02c0-18.14,12.62-33.4,28.4-33.4h2.1c13.41,0,20.77,9.2,20.77,26.3v80.21h34.18V99.98c0-30.24-15.25-49.96-45.75-49.96-16.83,0-31.56,8.41-39.71,21.83v-19.2h-34.19V184.13h34.19V111.02Z"/>
  <rect class="cls-1" x="687.33" y="52.65" width="34.18" height="131.48"/>
  <rect class="cls-1" x="686.01" y=".05" width="36.81" height="35.5"/>
  <path class="cls-1" d="M785.93,111.02c0-18.14,12.62-33.4,28.4-33.4h2.1c13.41,0,20.78,9.2,20.78,26.3v80.21h34.18V99.98c0-30.24-15.25-49.96-45.76-49.96-16.83,0-31.56,8.41-39.71,21.83v-19.2h-34.19V184.13h34.19V111.02Z"/>
  <polygon class="cls-1" points="429.31 225.55 389.37 248.46 481.38 242.98 389.37 296.21 389.37 351.82 424.87 351.82 424.87 307.74 510.08 258.39 504.25 291.74 544.37 268.13 550.64 231.76 528.83 219.39 429.31 225.55"/>
  <path class="cls-1" d="M1050.57,87.22l-32.54-34.57h-34.19v15.77c-7.37-12.62-21.57-18.4-37.08-18.4-30.77,0-56.8,24.98-56.8,67.05s26.03,67.06,56.8,67.06c15.51,0,29.71-5.79,37.08-18.41v23.32c0,20.51-13.42,31.29-30.77,31.29h-121.36l-15.66,13.58,95.84,90.29h-151.96c-13.94,0-28.66-9.73-29.72-27.34h88.89c.26-5.53,.52-9.73,.52-12.36,0-38.66-21.3-66.8-59.95-66.8s-62.59,28.93-62.59,68.37c0,42.61,28.67,65.75,62.59,65.75h196.32v-.15l.05-.05-.05-27.23-81.13-76.44h76.03v-.02c43.55-.39,67.13-26.24,67.13-54.68V96.8l32.55,34.59v-44.17Zm-293.27,158.1h2.11c14.46,0,26.03,9.72,27.08,25.24h-56.28c1.06-15.52,12.63-25.24,27.09-25.24Zm198.4-88.8h-2.1c-16.84,0-29.46-14.73-29.46-39.45s12.62-39.44,29.46-39.44h2.1c16.04,0,28.14,14.99,28.14,39.44s-12.1,39.45-28.14,39.45Z"/>
</svg>